<?xml version="1.0" encoding="iso-8859-1"?>
<!-- Uploaded to: SVG Repo, www.svgrepo.com, Generator: SVG Repo Mixer Tools -->
<!DOCTYPE svg PUBLIC "-//W3C//DTD SVG 1.1//EN" "http://www.w3.org/Graphics/SVG/1.1/DTD/svg11.dtd">
<svg fill="#000000" height="800px" width="800px" version="1.1" id="Capa_1" xmlns="http://www.w3.org/2000/svg" xmlns:xlink="http://www.w3.org/1999/xlink" 
	 viewBox="0 0 310.912 310.912" xml:space="preserve">
<g>
	<path d="M80.201,89.31c-4.143,0-7.5,3.357-7.5,7.5c0,4.143,3.357,7.5,7.5,7.5h42.428c4.143,0,7.5-3.357,7.5-7.5
		c0-4.143-3.357-7.5-7.5-7.5H80.201z"/>
	<path d="M303.412,159.433H200.094c-3.314-10.939-13.91-20.677-30.664-27.946c-18.506-8.03-42.947-12.453-68.82-12.453
		c-25.873,0-50.314,4.423-68.822,12.452C11.289,140.38,0,152.968,0,166.933c0,0.038,0.006,0.076,0.006,0.114
		c0.002,0.1,0.01,0.197,0.016,0.295c0.01,0.191,0.025,0.383,0.051,0.574c0.012,0.094,0.027,0.186,0.043,0.277
		c0.035,0.209,0.08,0.415,0.133,0.621c0.018,0.068,0.033,0.139,0.053,0.208c0.08,0.275,0.172,0.548,0.285,0.816
		c0.004,0.01,0.014,0.031,0.021,0.049c0.383,0.907,5.238,12.383,11.26,24.066c11.865,23.023,18.141,27.648,24.42,27.648h128.641
		c6.279,0,12.555-4.625,24.42-27.648c3.869-7.509,7.258-14.932,9.289-19.521h104.775c4.142,0,7.5-3.357,7.5-7.5
		C310.912,162.791,307.555,159.433,303.412,159.433z M37.758,145.247c16.664-7.23,38.986-11.213,62.851-11.213
		c23.865,0,46.186,3.982,62.85,11.213c9.521,4.132,16.48,9.123,20.049,14.187H17.709C21.277,154.37,28.236,149.378,37.758,145.247z
		 M163.662,206.602H37.557c-3.66-3.078-11.297-16.436-18.555-32.169h163.201C175.398,189.157,167.578,203.348,163.662,206.602z"/>
</g>
</svg>